Patient4_TMGait_0pt3_01_left_20_EMG.mot
version=1
nRows=29
nColumns=33
inDegrees=no
endheader
time	1LAddLong	2LGlutMax	3LGlutMed	4LIliopsoas	5LSemiMemb	6LBicFemLong	7LRecFem	8LVastMed	9LVastLat	10LGasMed	11LTibAnt	12lTibPost	13LPeroneusLong	14LSol	15LExtDigLong	16LFlexDigLong	17RAddLong	18RGlutMax	19RGlutMed	20RIliopsoas	21RSemiMemb	22RBicFemLong	23RRecFem	24RVastMed	25RVastLat	26RGasMed	27RTibAnt	28RTibPost	29RPeroneusLong	30RSol	31RExtDigLong	32RFlexDigLong
38.735	0.002441	-0.02655	-0.14389	-0.004883	0.011139	-0.52139	0.032654	-0.006561	0.026398	-0.045624	-0.20584	0.003662	0.071716	0.24002	-0.019989	0.009766	-0.043182	-0.033722	-0.19272	-0.027161	-0.21118	0.098572	0.01236	-0.17395	-0.14725	-0.00885	0.006104	0.000305	0.097961	0.056305	-0.003662	-0.022278
38.736	-0.00061	0.010986	0.065155	0.02243	-0.010071	-0.62454	0.022888	0.000305	0.034943	-0.011292	-0.13046	0.002441	0.034485	0.22354	-0.24384	0.000916	-0.026245	0.007935	-0.051575	-0.046997	-0.112	0.14801	-0.044403	-0.11429	-0.13916	-0.013123	0.023956	-0.001221	-0.13718	0.013733	-0.003967	-0.020905
38.737	-0.002136	-0.035095	-0.001678	0.00824	-0.000305	-0.5722	0.026855	-0.001221	0.03891	0.007019	-0.14389	-0.00473	-0.00351	0.15243	-0.35324	-0.016479	-0.009918	-0.051117	-0.18051	-0.022583	-0.063934	0.12436	-0.12955	-0.16556	-0.11688	-0.006561	0.001221	0.001526	-0.13992	0.002594	-0.001831	-0.023346
38.738	0.007172	-0.02121	-0.14038	-0.00885	-0.013123	-0.57632	0.024872	0.001373	0.028992	0.001984	-0.11063	-0.014801	-0.010223	0.061798	-0.29129	-0.00473	-0.009155	-0.074921	-0.16159	0.010986	0.2388	0.075989	-0.20996	-0.16235	-0.078888	-0.01236	0.017242	-0.000916	-0.19547	-0.005951	-0.002747	-0.014191
38.739	-0.003357	-0.037384	-0.17792	0.004425	-0.000305	-0.32547	0.043793	0.00412	0.024567	-0.000916	-0.097046	-0.007782	-0.000305	0.020294	-0.30792	-0.001984	-0.003662	-0.057068	-0.059509	0.013885	0.27573	0.019073	-0.046539	-0.19974	-0.059967	-0.001678	0.001373	0.001984	-0.27298	-0.025635	0.000305	-0.015869
38.74	0.001526	-0.002136	-0.16556	-0.011902	-0.024414	-0.17349	0.026398	0.004425	0.077057	-0.012512	-0.033875	0.007019	0.029297	0.04364	-0.16876	-0.017853	0.010834	-0.029144	-0.055084	-0.021973	0.020752	0.007172	-0.067902	-0.15778	-0.043793	-0.004883	0.021667	0.00473	-0.15427	-0.046844	-0.000153	-0.020447
38.741	0.006409	-0.023041	0.019836	-0.007324	-0.055084	-0.10178	0.027161	0.005646	0.092621	-0.016022	0.015106	-0.005951	0.026855	0.020905	-0.10742	-0.013428	-0.004272	-0.03952	0.23834	-0.051117	-0.15564	0.036163	-0.014038	-0.17899	0.006714	-0.004272	0.097809	0.005646	0.040436	-0.067444	0.004425	-0.016479
38.742	0.002441	-0.007477	0.048676	0.009918	-0.020599	-0.056763	0.074463	0.00351	0.040588	-0.002899	0.040436	-0.003052	-0.001068	-0.078583	-0.26245	-0.011444	-0.014801	-0.039673	0.09491	-0.075684	-0.21439	0.052032	-0.06073	-0.10208	0.13534	-0.001678	0.17944	-0.002136	0.066681	-0.05127	-0.00412	-0.009918
38.743	0.00473	-0.018768	-0.076599	0.009918	0.045471	-0.11566	0.061035	0.005951	-0.014648	-0.002136	0.029602	-0.002899	-0.010223	-0.074615	0.27008	-0.024567	-0.005646	-0.025024	-0.011292	-0.043945	-0.23758	0.033264	-0.088043	-0.03006	0.15076	0	0.20493	-0.001984	-0.007629	-0.053558	-0.002136	-0.011139
38.744	0.000305	-0.021667	-0.10788	0.009003	0.06485	-0.11047	0.093231	0.01236	-0.056763	0.001221	0.014954	-0.003052	-0.006866	-0.010986	0.019836	-0.006866	0.003052	-0.031891	-0.003815	-0.049286	-0.081482	0.0914	-0.17441	0.018921	0.14358	-0.00885	0.085907	-0.000305	-0.043182	-0.03418	-0.005493	-0.007782
38.745	-0.005341	0.009003	-0.032349	0.010986	0.047455	-0.14297	0.096893	0.00824	-0.083618	0.005798	0.010071	-0.005341	-0.013733	-0.02121	-0.042267	0.011597	-0.009918	-0.039063	-0.093994	0.005188	0.088959	0.11444	-0.13001	0.036774	0.10452	-0.001068	-0.064545	0.005341	-0.012817	-0.042419	-0.00351	-0.003052
38.746	0.011444	0.039215	-0.03952	0.00824	0.036011	-0.090942	0.12299	0.00412	-0.097809	-0.01709	0.030975	-0.006256	-0.032349	0.021973	-0.13031	0.000153	-0.024109	-0.007782	-0.068665	0.14023	0.25436	0.11032	-0.073547	0	0.045929	0.000916	-0.11185	0.002441	-0.009918	0.027466	-0.003967	-0.003662
38.747	0.018463	0.032043	0.03418	0.006104	0.032806	0.017395	0.12085	0.001068	-0.08728	-0.091553	0.0354	-0.004578	-0.014038	-0.03418	-0.046997	0.009766	-0.032349	-0.00412	-0.16434	0.14587	0.53543	0.059204	-0.072174	-0.017242	-0.010071	-0.003357	-0.10956	0.000763	-0.008698	0.063477	-0.001221	-0.008392
38.748	0.014496	0.067291	0.062866	0.013885	0.024567	-0.021973	0.15717	0.00351	0.042572	-0.13641	0.046844	-0.023956	-0.009003	-0.072021	0.019226	0.011292	-0.031891	0.018005	-0.15305	0.037079	0.27618	0.014648	-0.16983	0.0737	0.020599	-0.001526	-0.021057	-0.001373	-0.050201	0.052643	-0.001068	-0.014343
38.749	0.021973	0.036621	0.037689	0.002899	0.017242	-0.012512	0.15808	-0.003967	0.13977	-0.084839	0.07309	0.011444	-0.023956	-0.010681	0.031281	0.009308	-0.028076	0.010681	-0.14297	-0.13611	0.18097	0.000763	-0.088196	0.27466	0.083008	-0.007629	0.022278	0.001526	-0.10315	0.045319	-0.003357	-0.014496
38.75	0.007324	0.012817	0.095673	0.005188	0.003967	0.13199	0.20462	-0.006256	0.033722	-0.051727	0.066681	0.002136	-0.029449	-0.014954	0.045929	-0.002594	-0.017242	-0.002441	-0.077667	-0.19226	0.177	-0.001373	0.03952	0.10941	0.041351	-0.006104	-0.014648	-0.000153	-0.071106	0.035858	-0.007324	-0.012817
38.751	0.015717	0.020447	0.041809	0.002441	0.013123	0.1413	0.13184	-0.002747	0.012054	0.037689	-0.003357	0.001221	-0.007477	0.012207	0.052338	0.002899	-0.001221	-0.011292	-0.089874	-0.085754	0.14465	0.008392	0.1355	-0.002289	-0.0383	-0.004883	-0.059052	-0.000153	-0.034943	0.05127	-0.002136	-0.011292
38.752	0.006866	0.026093	-0.001068	-0.001068	-0.015869	0.14328	0.1033	0.002136	0.024567	0.15335	-0.009918	-0.004425	-0.014496	-0.032654	0.072479	-0.000153	0.013733	-0.059662	-0.084381	0.14816	0.11734	0.028381	0.17319	0.019836	-0.10208	-0.002899	-0.038757	0.002289	-0.064087	0.016327	-0.002289	-0.017853
38.753	-0.001373	0.071564	-0.006714	0.011292	-0.050812	0.10529	0.091095	0.004578	0.007935	0.19348	0.007477	0.002289	-0.007477	-0.029755	0.11353	0.005798	-0.007935	0.015717	-0.17105	0.233	0.10727	0.054474	0.25009	0.002289	-0.14526	-0.001678	-0.04425	-0.006409	-0.008698	0.009613	0.000916	-0.018005
38.754	-0.000458	0.059662	-0.015869	0.01236	-0.024414	0.14282	0.11398	0.006104	0.016785	0.095978	0.066528	-0.002594	-0.005188	0.055237	0.103	0.005646	-0.006256	0.047913	-0.18845	0.15442	0.10452	0.055542	0.23056	-0.013275	-0.14465	-0.011902	0.068817	0.000763	0.055695	0.009308	-0.002594	-0.013885
38.755	-0.001221	0.067291	0.03067	0.011902	0.020752	-0.078125	0.14969	0.004272	0.035706	0.025024	0.042877	-0.002594	-0.008087	0.032196	0.046997	-0.002136	-0.018463	0.020752	-0.13275	0.062103	0.11719	0.084839	-0.13825	0.031586	-0.11368	-0.009766	0.10727	0.000763	0.060577	-0.036621	-0.003052	-0.011902
38.756	0.004883	0.092926	0.011292	0.000916	0.024872	-0.22171	0.14343	0.008698	0.050812	-0.044708	-0.06485	0.00351	0.054016	-0.013885	-0.014801	-0.000763	-0.028687	0.053711	-0.29968	0.045776	0.12009	0.076447	-0.37369	0.10117	0.1268	-0.009613	0.088806	-0.001678	0.033569	-0.031891	-0.002136	-0.009155
38.757	0.006409	0.043335	-0.022583	0.005951	0.038757	-0.1001	0.15595	0.001831	0.050964	-0.063934	-0.099792	0.003204	0.028992	-0.075073	-0.039673	0.00473	-0.02182	0.062256	-0.53482	-0.041656	0.13214	0.077667	-0.71732	0.15015	0.46616	-0.012665	0.066071	0.000305	-0.002441	0.013885	-0.003357	-0.016632
38.758	0.01358	0.067444	-0.035095	0.011749	0.009766	0.034943	0.11917	0.009155	0.063934	-0.023346	0.056	0.000916	-0.015259	-0.1329	-0.035553	0.002594	-0.029907	0.052185	-0.63065	-0.036774	0.12695	0.067902	-0.84824	0.14801	0.56458	-0.011139	0.073547	0.001068	-0.015259	0.02182	-0.003662	-0.020905
38.759	0.018616	0.064392	-0.02655	0.010986	-0.003052	0.04715	0.09552	0.006256	0.0177	-0.015106	0.049286	0.004425	-0.010681	-0.18005	-0.017548	-0.009003	-0.021362	0.03952	-0.33569	-0.090485	0.14694	0.024567	-0.48126	0.11002	0.34821	-0.010681	0.11368	-0.002594	-0.039978	0.018005	-0.002899	-0.013123
38.76	0.005646	0.035858	0.048981	-0.006866	-0.002441	-0.11154	0.068512	0.014648	-0.036926	-0.0383	0.024109	-0.003204	0.018616	-0.16464	0.014343	-0.00946	0.007629	0.074158	-0.14481	-0.070953	0.1294	-0.011902	-0.095367	0.1387	0.04715	-0.007324	0.070953	0.001984	-0.015411	0.016022	-0.00824	-0.010681
38.761	0.006256	0.03952	-0.019379	-0.006714	-0.012817	-0.17227	0.087891	0.006409	-0.056763	-0.035858	0.031738	0.000763	0.003357	-0.054321	0.011444	-0.019989	0.033264	0.067139	-0.29617	0.052643	0.08194	-0.020599	0.12299	0.063019	-0.18646	-0.00473	0.089569	0.00061	-0.000458	0.012817	-0.002747	-0.010376
38.762	-0.003662	0.045319	-0.054169	0.006714	-0.031433	-0.19684	0.11002	0.006866	-0.056152	-0.042114	0.011902	0.001831	0.023041	0.023499	-0.003204	-0.006561	0.027313	0.046387	0.20966	0.12756	0.046387	0.004425	0.052643	0.041962	-0.14618	-0.001831	0.046539	-0.001068	0.010529	0.015259	-0.005493	-0.011292
38.763	-0.001831	0.075684	-0.046844	0.018311	-0.056305	-0.13962	0.11078	0.016327	-0.044556	-0.046387	-0.017853	-0.00412	0.005341	0.010529	-0.014191	-0.000458	0.018005	0.04715	0.046844	0.1796	0.048828	0.010681	-0.003357	0.040894	-0.058136	0.001373	-0.073242	-0.004425	0.000916	0.011292	-0.007172	-0.011749
